<?xml version="1.0" encoding="utf-8"?>
<!-- Generator: Adobe Illustrator 21.0.2, SVG Export Plug-In . SVG Version: 6.00 Build 0)  -->
<svg version="1.1" id="Layer_1" xmlns="http://www.w3.org/2000/svg" xmlns:xlink="http://www.w3.org/1999/xlink" x="0px" y="0px"
	 viewBox="0 0 1000 1000" style="enable-background:new 0 0 1000 1000;" xml:space="preserve">
<style type="text/css">
	.st0{fill:#ffffff;}
</style>
<path class="st0" d="M500,0C223.9,0,0,223.9,0,500s223.9,500,500,500s500-223.9,500-500S776.1,0,500,0z M500,950
	C251.5,950,50,748.5,50,500S251.5,50,500,50s450,201.5,450,450S748.5,950,500,950z"/>
<g>
	<path class="st0" d="M738.6,406.2c5.6-14,9.4-29.3,9.4-44.4c0-30.4-11.5-58.7-32.2-79.7c-20.7-22.3-49.6-34-78.5-34c-15.1,0-29.9,3.4-43.7,9.6
		c-17.2-35.3-51.9-59.8-93.5-59.8c-40.4,0-76.1,24.7-93.5,59.8c-13.8-5.7-28.9-9.6-43.7-9.6c-29.9,0-57.7,11.7-78.5,32.7
		c-20.7,21.1-32.2,50.4-32.2,79.7c0,15.3,3.3,30.4,9.4,44.4c-34.7,17.4-57.7,52.7-57.7,95.1c0,42.3,24.3,77.4,57.7,95.1
		c-5.6,14-9.4,29.3-9.4,44.4c0,30.4,11.5,58.7,32.2,79.7c20.7,21.1,48.5,32.7,78.5,32.7c15.1,0,29.9-3.4,43.7-9.6
		c17.2,36.4,53.1,59.8,93.5,59.8s76.1-24.7,93.5-58.7c13.8,5.7,27.8,9.6,43.7,9.6c29.9,0,57.7-11.7,78.5-32.7
		c20.7-21.1,32-49.1,32-79.5c0-15.3-3.3-30.4-9.4-44.4c34.7-17.4,57.7-52.7,57.7-95.1C796.3,459,772.1,423.7,738.6,406.2z
		 M638.2,279.5c22,0,42.9,8.3,57.7,24.7c15.1,15.3,24.3,36.4,24.3,58.7c-1.3,10.4-4.6,22.3-9.4,34c-5.6-1.3-11.5-1.3-17.2-1.3
		c-49.6,0-88.9-41-88.9-90.4c0-5.7,0-11.7-1.3-18.7C613.9,281.6,625.4,279.5,638.2,279.5z M499.5,212.5c34.7,0,65.9,21.1,81,50.4
		c-8.2,4.7-15.1,10.4-22,17.4c-15.1,15.3-35.8,24.7-57.7,24.7c-22,0-42.9-8.3-57.7-24.7c-6.9-7-13.8-13-22-17.4
		C433.8,233.8,465.2,212.5,499.5,212.5z M307,301.8c15.1-15.3,35.8-24.7,57.7-24.7c10.3,1.3,22,3.4,32.2,8.3
		c-1.3,5.7-1.3,11.7-1.3,18.7c0,50.4-40.4,90.4-88.9,90.4c-5.6,0-11.5,0-17.2,1.3c-4.6-10.4-6.9-22.3-6.9-35.3
		C282.5,338,290.7,316.9,307,301.8z M216.8,501.3c0-35.3,20.7-67,49.6-81c4.6,8.3,10.3,15.3,17.2,22.3
		c15.1,15.3,24.3,36.4,24.3,58.7c0,22.3-8.2,43.6-24.3,58.7c-6.9,7-12.8,14-17.2,22.3C236.3,567,216.8,536.4,216.8,501.3z
		 M361,721.8c-22,0-42.9-8.3-57.7-24.7c-15.1-15.3-24.3-36.4-24.3-58.7c1.3-10.4,4.6-22.3,9.4-34c5.6,1.3,11.5,1.3,17.2,1.3
		c49.6,0,88.9,41,88.9,90.4c0,5.7,0,11.7,1.3,18.7C385.5,719.5,373.7,721.8,361,721.8z M499.5,787.5c-34.7,0-65.9-21.1-81-50.4
		c8.2-4.7,15.1-10.4,22-17.4c15.1-15.3,35.8-24.7,57.7-24.7c22,0,42.9,8.3,57.7,24.7c8.2,7,16.3,13,24.3,17.4
		C565.4,767.5,535.5,787.5,499.5,787.5z M588.6,696.1c0,3.4,0,7,0,10.4c-3.3-2.3-6.9-5.7-10.3-8.3c-20.7-21.1-48.5-32.7-78.5-32.7
		c-29.9,0-57.7,11.7-78.5,32.7c-3.3,3.4-6.9,5.7-10.3,8.3c0-3.4,0-7,0-10.4c0-58.7-46.2-105.5-103.8-105.5c-3.3,0-6.9,0-10.3,0
		c2.3-3.4,5.6-7,8.2-10.4c20.7-21.1,32.2-49.3,32.2-79.7c0-30.4-11.5-58.7-32.2-79.7c-3.3-3.4-5.6-7-8.2-10.4c3.3,0,6.9,0,10.3,0
		c57.7,0,103.8-47,103.8-105.5c0-3.4,0-7,0-10.4c3.3,2.3,6.9,5.7,10.3,8.3c20.7,21.1,48.5,32.7,78.5,32.7
		c29.9,0,57.7-11.7,78.5-32.7c3.3-2.3,6.9-4.7,10.3-8.3c0,3.4,0,7,0,10.4c0,58.7,47.3,105.5,103.8,105.5c3.3,0,6.9,0,10.3,0
		c-2.3,3.4-5.6,7-8.2,10.4c-20.7,21.1-32.2,49.3-32.2,79.7c0,30.4,11.5,58.7,32.2,79.7c3.3,3.4,5.6,7,8.2,10.4c-3.3,0-6.9,0-10.3,0
		C634.8,590.4,588.6,637.2,588.6,696.1z M692.4,699.5c-15.1,15.3-35.8,24.7-57.7,24.7c-10.3-1.3-22-3.4-32.2-8.3
		c1.3-5.7,1.3-11.7,1.3-18.7c0-50.4,40.4-90.4,88.9-90.4c5.6,0,11.5,0,17.2-1.3c4.6,10.4,6.9,22.3,6.9,35.3
		C716.6,663.3,708.7,684.2,692.4,699.5z M732.7,581c-4.6-8.3-10.3-15.3-17.2-22.3c-15.1-15.3-24.3-36.4-24.3-58.7
		c0-22.3,8.2-43.6,24.3-58.7c6.9-7,12.8-14,17.2-22.3c29.9,15.3,49.6,45.7,49.6,81S761.8,567,732.7,581z"/>
</g>
</svg>
