<svg width="20" height="20" viewBox="0 0 20 20" fill="none" xmlns="http://www.w3.org/2000/svg">
<path d="M8.33338 10.833C8.69125 11.3114 9.14784 11.7073 9.67217 11.9938C10.1965 12.2802 10.7763 12.4506 11.3723 12.4933C11.9682 12.5359 12.5664 12.45 13.1262 12.2411C13.686 12.0323 14.1943 11.7055 14.6167 11.283L17.1167 8.78298C17.8757 7.99714 18.2957 6.94463 18.2862 5.85214C18.2767 4.75965 17.8385 3.7146 17.066 2.94207C16.2934 2.16953 15.2484 1.73133 14.1559 1.72184C13.0634 1.71234 12.0109 2.13232 11.225 2.89131L9.79171 4.31631M11.6667 9.16631C11.3088 8.68787 10.8522 8.29199 10.3279 8.00553C9.80359 7.71906 9.22379 7.54871 8.62784 7.50603C8.03188 7.46335 7.43372 7.54934 6.87392 7.75816C6.31412 7.96698 5.80578 8.29375 5.38338 8.71631L2.88338 11.2163C2.12439 12.0022 1.70441 13.0547 1.7139 14.1472C1.7234 15.2396 2.1616 16.2847 2.93413 17.0572C3.70667 17.8298 4.75172 18.268 5.84421 18.2775C6.93669 18.2869 7.9892 17.867 8.77504 17.108L10.2 15.683" stroke="#98A2B3" stroke-width="1.67" stroke-linecap="round" stroke-linejoin="round"/>
</svg>
