<?xml version="1.0" encoding="utf-8"?>
<!-- Generator: Adobe Illustrator 21.0.2, SVG Export Plug-In . SVG Version: 6.00 Build 0)  -->
<svg version="1.1" id="Layer_1" xmlns="http://www.w3.org/2000/svg" xmlns:xlink="http://www.w3.org/1999/xlink" x="0px" y="0px"
	 viewBox="0 0 512 512" style="enable-background:new 0 0 512 512;" xml:space="preserve">
<style type="text/css">
	.st0{fill:#FFFFFF;}
</style>
<g id="Layer_6">
	<path class="st0" d="M256.1,4.1C116.9,4.1,4.1,116.9,4.1,256c0,139.1,112.8,251.9,251.9,251.9C395.2,507.9,508,395.1,508,256
		C508,116.9,395.2,4.1,256.1,4.1z M254.3,482C129.6,482,28.6,381,28.6,256.3c0-124.7,101-225.7,225.7-225.7
		c124.7,0,225.7,101,225.7,225.7C480,381,378.9,482,254.3,482z"/>
	<g>
		<path class="st0" d="M162.6,141.9v33.6c100.4,0,181.7,81.3,181.7,181.7h33.6C377.9,238.3,281.5,141.9,162.6,141.9z"/>
		<path class="st0" d="M162.6,206.9v33.7c62.9,0.3,113.8,51.4,113.8,114.4c0,0.7-0.1,1.5-0.1,2.2H310c0-0.7,0.1-1.5,0.1-2.2
			C310.1,273.4,244.1,207.3,162.6,206.9z"/>
		<path class="st0" d="M191.8,298.7c-16.2,0-29.3,13.1-29.3,29.3c0,16.1,13.1,29.3,29.3,29.3s29.2-13.1,29.2-29.3
			C221.1,311.8,208,298.7,191.8,298.7z"/>
	</g>
</g>
</svg>
